<?xml version="1.0" encoding="UTF-8"?>
<svg xmlns="http://www.w3.org/2000/svg" xmlns:xlink="http://www.w3.org/1999/xlink" width="0" height="0">
  <symbol id="search" viewBox="0 0 24 25" fill="none">
    <path fill-rule="evenodd" clip-rule="evenodd" d="M15.341 18.3259C14.0967 19.1164 12.6204 19.5742 11.0371 19.5742C6.59834 19.5742 3 15.9759 3 11.5371C3 7.09834 6.59834 3.5 11.0371 3.5C15.4759 3.5 19.0742 7.09834 19.0742 11.5371C19.0742 13.6331 18.2719 15.5418 16.9575 16.9726L20.1424 20.1574C20.5524 20.5675 20.5524 21.2323 20.1424 21.6424C19.7323 22.0524 19.0675 22.0524 18.6574 21.6424L15.341 18.3259ZM11.0371 17.7742C14.4818 17.7742 17.2742 14.9818 17.2742 11.5371C17.2742 8.09245 14.4818 5.3 11.0371 5.3C7.59245 5.3 4.8 8.09245 4.8 11.5371C4.8 14.9818 7.59245 17.7742 11.0371 17.7742Z" fill="currentColor"/>
  </symbol>
</svg>
