<svg width="20" height="20" viewBox="0 0 20 20" fill="none" xmlns="http://www.w3.org/2000/svg">
<path d="M5.24216 10.5919C5.31963 10.67 5.4118 10.732 5.51335 10.7743C5.6149 10.8166 5.72382 10.8384 5.83383 10.8384C5.94384 10.8384 6.05276 10.8166 6.15431 10.7743C6.25586 10.732 6.34803 10.67 6.4255 10.5919L9.16716 7.84191V14.1669C9.16716 14.3879 9.25496 14.5999 9.41124 14.7562C9.56752 14.9124 9.77948 15.0002 10.0005 15.0002C10.2215 15.0002 10.4335 14.9124 10.5898 14.7562C10.746 14.5999 10.8338 14.3879 10.8338 14.1669V7.84191L13.5755 10.5919C13.7324 10.7488 13.9452 10.837 14.1672 10.837C14.3891 10.837 14.6019 10.7488 14.7588 10.5919C14.9157 10.435 15.0039 10.2222 15.0039 10.0002C15.0039 9.77833 14.9157 9.5655 14.7588 9.40858L10.5922 5.24191C10.5129 5.16604 10.4195 5.10657 10.3172 5.06691C10.2174 5.02282 10.1096 5.00005 10.0005 5.00005C9.89144 5.00005 9.78358 5.02282 9.68383 5.06691C9.58154 5.10657 9.48808 5.16604 9.40883 5.24191L5.24216 9.40858C5.16406 9.48605 5.10206 9.57821 5.05975 9.67976C5.01745 9.78131 4.99566 9.89023 4.99566 10.0002C4.99566 10.1103 5.01745 10.2192 5.05975 10.3207C5.10206 10.4223 5.16406 10.5144 5.24216 10.5919Z" fill="#F0F0F5"/>
</svg>
