<svg width="18" height="18" viewBox="0 0 18 18" fill="none" xmlns="http://www.w3.org/2000/svg">
<path d="M4.71834 9.53268C4.78806 9.60298 4.87101 9.65878 4.9624 9.69685C5.0538 9.73493 5.15183 9.75453 5.25084 9.75453C5.34985 9.75453 5.44788 9.73493 5.53927 9.69685C5.63066 9.65878 5.71361 9.60298 5.78334 9.53268L8.25084 7.05768V12.7502C8.25084 12.9491 8.32985 13.1399 8.47051 13.2805C8.61116 13.4212 8.80192 13.5002 9.00084 13.5002C9.19975 13.5002 9.39051 13.4212 9.53117 13.2805C9.67182 13.1399 9.75084 12.9491 9.75084 12.7502V7.05768L12.2183 9.53268C12.3596 9.67391 12.5511 9.75325 12.7508 9.75325C12.9506 9.75325 13.1421 9.67391 13.2833 9.53268C13.4246 9.39146 13.5039 9.19991 13.5039 9.00018C13.5039 8.80046 13.4246 8.60891 13.2833 8.46768L9.53334 4.71768C9.46201 4.6494 9.3779 4.59588 9.28584 4.56018C9.19606 4.5205 9.09899 4.50001 9.00084 4.50001C8.90268 4.50001 8.80561 4.5205 8.71584 4.56018C8.62377 4.59588 8.53966 4.6494 8.46834 4.71768L4.71834 8.46768C4.64804 8.53741 4.59224 8.62036 4.55417 8.71175C4.51609 8.80314 4.49649 8.90117 4.49649 9.00018C4.49649 9.09919 4.51609 9.19722 4.55417 9.28862C4.59224 9.38001 4.64804 9.46296 4.71834 9.53268Z" fill="#1A1A1A"/>
</svg>
