<svg width="16" height="17" viewBox="0 0 16 17" fill="none" xmlns="http://www.w3.org/2000/svg">
<g id="Icon">
<mask id="mask0_3157_1866" style="mask-type:alpha" maskUnits="userSpaceOnUse" x="0" y="0" width="16" height="17">
<rect id="Bounding box" y="0.189941" width="16" height="16" fill="#D9D9D9"/>
</mask>
<g mask="url(#mask0_3157_1866)">
<path id="date_range" d="M5.4035 9.38992C5.2345 9.38992 5.09167 9.33275 4.975 9.21842C4.85833 9.10408 4.8 8.96242 4.8 8.79342C4.8 8.62442 4.85717 8.48158 4.9715 8.36492C5.08584 8.24825 5.2275 8.18992 5.3965 8.18992C5.5655 8.18992 5.70833 8.24708 5.825 8.36142C5.94167 8.47575 6 8.61742 6 8.78642C6 8.95542 5.94283 9.09825 5.8285 9.21492C5.71417 9.33158 5.5725 9.38992 5.4035 9.38992ZM8.0035 9.38992C7.8345 9.38992 7.69167 9.33275 7.575 9.21842C7.45833 9.10408 7.4 8.96242 7.4 8.79342C7.4 8.62442 7.45717 8.48158 7.5715 8.36492C7.68584 8.24825 7.8275 8.18992 7.9965 8.18992C8.1655 8.18992 8.30833 8.24708 8.425 8.36142C8.54167 8.47575 8.6 8.61742 8.6 8.78642C8.6 8.95542 8.54283 9.09825 8.4285 9.21492C8.31417 9.33158 8.1725 9.38992 8.0035 9.38992ZM10.6035 9.38992C10.4345 9.38992 10.2917 9.33275 10.175 9.21842C10.0583 9.10408 10 8.96242 10 8.79342C10 8.62442 10.0572 8.48158 10.1715 8.36492C10.2858 8.24825 10.4275 8.18992 10.5965 8.18992C10.7655 8.18992 10.9083 8.24708 11.025 8.36142C11.1417 8.47575 11.2 8.61742 11.2 8.78642C11.2 8.95542 11.1428 9.09825 11.0285 9.21492C10.9142 9.33158 10.7725 9.38992 10.6035 9.38992ZM3.6 14.5899C3.27 14.5899 2.9875 14.4705 2.7525 14.2316C2.5175 13.9927 2.4 13.7121 2.4 13.3899V4.58992C2.4 4.26769 2.5175 3.98714 2.7525 3.74825C2.9875 3.50936 3.27 3.38992 3.6 3.38992H4.8V2.38992C4.8 2.21992 4.85717 2.07742 4.9715 1.96242C5.08584 1.84742 5.2275 1.78992 5.3965 1.78992C5.5655 1.78992 5.70833 1.84742 5.825 1.96242C5.94167 2.07742 6 2.21992 6 2.38992V3.38992H10V2.38992C10 2.21992 10.0572 2.07742 10.1715 1.96242C10.2858 1.84742 10.4275 1.78992 10.5965 1.78992C10.7655 1.78992 10.9083 1.84742 11.025 1.96242C11.1417 2.07742 11.2 2.21992 11.2 2.38992V3.38992H12.4C12.73 3.38992 13.0125 3.50936 13.2475 3.74825C13.4825 3.98714 13.6 4.26769 13.6 4.58992V13.3899C13.6 13.7121 13.4825 13.9927 13.2475 14.2316C13.0125 14.4705 12.73 14.5899 12.4 14.5899H3.6ZM3.6 13.3899H12.4V7.38992H3.6V13.3899ZM3.6 6.18992H12.4V4.58992H3.6V6.18992Z" fill="#666666"/>
</g>
</g>
</svg>
