<svg width="16" height="16" viewBox="0 0 16 16" fill="none" xmlns="http://www.w3.org/2000/svg">
<mask id="mask0_780_38418" style="mask-type:alpha" maskUnits="userSpaceOnUse" x="0" y="0" width="16" height="16">
<rect width="16" height="16" fill="#D9D9D9"/>
</mask>
<g mask="url(#mask0_780_38418)">
<path d="M8.00001 14.6667C7.07779 14.6667 6.21112 14.4917 5.40001 14.1417C4.5889 13.7917 3.88334 13.3167 3.28334 12.7167C2.68334 12.1167 2.20834 11.4111 1.85834 10.6C1.50834 9.78889 1.33334 8.92222 1.33334 8C1.33334 7.07778 1.50834 6.21111 1.85834 5.4C2.20834 4.58889 2.68334 3.88333 3.28334 3.28333C3.88334 2.68333 4.5889 2.20833 5.40001 1.85833C6.21112 1.50833 7.07779 1.33333 8.00001 1.33333C8.92223 1.33333 9.7889 1.50833 10.6 1.85833C11.4111 2.20833 12.1167 2.68333 12.7167 3.28333C13.3167 3.88333 13.7917 4.58889 14.1417 5.4C14.4917 6.21111 14.6667 7.07778 14.6667 8C14.6667 8.92222 14.4917 9.78889 14.1417 10.6C13.7917 11.4111 13.3167 12.1167 12.7167 12.7167C12.1167 13.3167 11.4111 13.7917 10.6 14.1417C9.7889 14.4917 8.92223 14.6667 8.00001 14.6667ZM11.3333 6.33333L12.2333 6.03333L12.5 5.13333C12.1445 4.6 11.7167 4.14167 11.2167 3.75833C10.7167 3.375 10.1667 3.08889 9.56668 2.9L8.66668 3.53333V4.46667L11.3333 6.33333ZM4.66668 6.33333L7.33334 4.46667V3.53333L6.43334 2.9C5.83334 3.08889 5.28334 3.375 4.78334 3.75833C4.28334 4.14167 3.85557 4.6 3.50001 5.13333L3.76668 6.03333L4.66668 6.33333ZM3.96668 11.4667L4.73334 11.4L5.23334 10.5L4.26668 7.6L3.33334 7.26667L2.66668 7.76667C2.66668 8.48889 2.76668 9.14722 2.96668 9.74167C3.16668 10.3361 3.50001 10.9111 3.96668 11.4667ZM8.00001 13.3333C8.2889 13.3333 8.57223 13.3111 8.85001 13.2667C9.12779 13.2222 9.40001 13.1556 9.66668 13.0667L10.1333 12.0667L9.70001 11.3333H6.30001L5.86668 12.0667L6.33334 13.0667C6.60001 13.1556 6.87223 13.2222 7.15001 13.2667C7.42779 13.3111 7.71112 13.3333 8.00001 13.3333ZM6.50001 10H9.50001L10.4333 7.33333L8.00001 5.63333L5.60001 7.33333L6.50001 10ZM12.0333 11.4667C12.5 10.9111 12.8333 10.3361 13.0333 9.74167C13.2333 9.14722 13.3333 8.48889 13.3333 7.76667L12.6667 7.3L11.7333 7.6L10.7667 10.5L11.2667 11.4L12.0333 11.4667Z" fill="#3D3D5C"/>
</g>
</svg>
