<svg width="20" height="20" viewBox="0 0 20 20" fill="none" xmlns="http://www.w3.org/2000/svg">
<mask id="mask0_780_38824" style="mask-type:alpha" maskUnits="userSpaceOnUse" x="0" y="0" width="20" height="20">
<rect width="20" height="20" fill="#D9D9D9"/>
</mask>
<g mask="url(#mask0_780_38824)">
<path d="M10 18.3334C8.84724 18.3334 7.76391 18.1146 6.75002 17.6771C5.73613 17.2396 4.85419 16.6459 4.10419 15.8959C3.35419 15.1459 2.76044 14.2639 2.32294 13.25C1.88544 12.2361 1.66669 11.1528 1.66669 10C1.66669 8.84724 1.88544 7.76391 2.32294 6.75002C2.76044 5.73613 3.35419 4.85419 4.10419 4.10419C4.85419 3.35419 5.73613 2.76044 6.75002 2.32294C7.76391 1.88544 8.84724 1.66669 10 1.66669C11.1528 1.66669 12.2361 1.88544 13.25 2.32294C14.2639 2.76044 15.1459 3.35419 15.8959 4.10419C16.6459 4.85419 17.2396 5.73613 17.6771 6.75002C18.1146 7.76391 18.3334 8.84724 18.3334 10C18.3334 11.1528 18.1146 12.2361 17.6771 13.25C17.2396 14.2639 16.6459 15.1459 15.8959 15.8959C15.1459 16.6459 14.2639 17.2396 13.25 17.6771C12.2361 18.1146 11.1528 18.3334 10 18.3334ZM14.1667 7.91669L15.2917 7.54169L15.625 6.41669C15.1806 5.75002 14.6459 5.1771 14.0209 4.69794C13.3959 4.21877 12.7084 3.86113 11.9584 3.62502L10.8334 4.41669V5.58335L14.1667 7.91669ZM5.83335 7.91669L9.16669 5.58335V4.41669L8.04169 3.62502C7.29169 3.86113 6.60419 4.21877 5.97919 4.69794C5.35419 5.1771 4.81946 5.75002 4.37502 6.41669L4.70835 7.54169L5.83335 7.91669ZM4.95835 14.3334L5.91669 14.25L6.54169 13.125L5.33335 9.50002L4.16669 9.08335L3.33335 9.70835C3.33335 10.6111 3.45835 11.434 3.70835 12.1771C3.95835 12.9202 4.37502 13.6389 4.95835 14.3334ZM10 16.6667C10.3611 16.6667 10.7153 16.6389 11.0625 16.5834C11.4097 16.5278 11.75 16.4445 12.0834 16.3334L12.6667 15.0834L12.125 14.1667H7.87502L7.33335 15.0834L7.91669 16.3334C8.25002 16.4445 8.5903 16.5278 8.93752 16.5834C9.28474 16.6389 9.63891 16.6667 10 16.6667ZM8.12502 12.5H11.875L13.0417 9.16669L10 7.04169L7.00002 9.16669L8.12502 12.5ZM15.0417 14.3334C15.625 13.6389 16.0417 12.9202 16.2917 12.1771C16.5417 11.434 16.6667 10.6111 16.6667 9.70835L15.8334 9.12502L14.6667 9.50002L13.4584 13.125L14.0834 14.25L15.0417 14.3334Z" fill="#1A1A1A"/>
</g>
</svg>
