<svg width="20" height="20" viewBox="0 0 20 20" fill="none" xmlns="http://www.w3.org/2000/svg">
<g clip-path="url(#clip0_744_18262)">
<path d="M5.3547 4.48608C5.3547 3.59629 6.06607 2.83006 7.02137 2.81941L12.8547 2.81941C13.7752 2.81941 14.5214 3.5656 14.5214 4.48608C14.5214 5.37587 13.8153 6.14731 12.8547 6.15275L12.438 6.15262V9.63099C14.3826 10.5263 15.7837 12.63 15.7714 14.9027C15.77 15.1481 15.5643 15.322 15.3547 15.3194L10.3544 15.3193L10.3547 19.0694C10.3547 19.2995 10.1682 19.4861 9.93803 19.4861C9.72562 19.4861 9.52239 19.3202 9.52137 19.0694L9.52119 15.3193L4.52137 15.3194C4.30895 15.3194 4.1047 15.156 4.1047 14.9027C4.1047 12.6732 5.39894 10.581 7.43753 9.63099V6.15262L7.02137 6.15275C6.06913 6.1503 5.3547 5.37587 5.3547 4.48608Z" fill="#52527A"/>
</g>
<defs>
<clipPath id="clip0_744_18262">
<rect width="20" height="20" fill="white"/>
</clipPath>
</defs>
</svg>
