<svg width="16" height="17" viewBox="0 0 16 17" fill="none" xmlns="http://www.w3.org/2000/svg">
<g id="Icon">
<mask id="mask0_3157_1861" style="mask-type:alpha" maskUnits="userSpaceOnUse" x="0" y="0" width="16" height="17">
<rect id="Bounding box" y="0.189941" width="16" height="16" fill="#D9D9D9"/>
</mask>
<g mask="url(#mask0_3157_1861)">
<path id="distance" d="M8 14.5899C6.8 14.5899 5.83333 14.4149 5.1 14.0649C4.36667 13.7149 4 13.2566 4 12.6899C4 12.501 4.04722 12.3196 4.14167 12.1458C4.23611 11.9719 4.37778 11.8088 4.56667 11.6566C4.71111 11.5677 4.86667 11.5455 5.03333 11.5899C5.2 11.6344 5.32778 11.7288 5.41667 11.8733C5.50555 12.0177 5.52778 12.1705 5.48333 12.3316C5.43889 12.4927 5.34444 12.6177 5.2 12.7066C5.28889 12.8621 5.63333 13.0149 6.23333 13.1649C6.83333 13.3149 7.42222 13.3899 8 13.3899C8.57778 13.3899 9.16667 13.3149 9.76667 13.1649C10.3667 13.0149 10.7111 12.8621 10.8 12.7066C10.6556 12.6177 10.5611 12.4927 10.5167 12.3316C10.4722 12.1705 10.4944 12.0177 10.5833 11.8733C10.6722 11.7288 10.8 11.6344 10.9667 11.5899C11.1333 11.5455 11.2889 11.5677 11.4333 11.6566C11.6222 11.8088 11.7639 11.9719 11.8583 12.1458C11.9528 12.3196 12 12.501 12 12.6899C12 13.2566 11.6333 13.7149 10.9 14.0649C10.1667 14.4149 9.2 14.5899 8 14.5899ZM8.01667 11.0899C9.07222 10.3121 9.86667 9.51492 10.4 8.69825C10.9333 7.88158 11.2 7.07831 11.2 6.28842C11.2 5.19953 10.8556 4.37758 10.1667 3.82258C9.47778 3.26747 8.75555 2.98992 8 2.98992C7.24444 2.98992 6.52222 3.26825 5.83333 3.82492C5.14444 4.38147 4.8 5.20564 4.8 6.29742C4.8 7.01464 5.06667 7.77603 5.6 8.58158C6.13333 9.38714 6.93889 10.2233 8.01667 11.0899ZM8 12.3066C7.87778 12.3066 7.75555 12.2871 7.63333 12.2483C7.51111 12.2094 7.4 12.1455 7.3 12.0566C6.05555 11.0566 5.12778 10.0705 4.51667 9.09825C3.90555 8.12603 3.6 7.19108 3.6 6.29342C3.6 5.55242 3.73333 4.90269 4 4.34425C4.26667 3.78581 4.61111 3.31769 5.03333 2.93992C5.45555 2.56214 5.92761 2.27603 6.4495 2.08158C6.97139 1.88714 7.48805 1.78992 7.9995 1.78992C8.51094 1.78992 9.02778 1.88714 9.55 2.08158C10.0722 2.27603 10.5437 2.56208 10.9643 2.93975C11.3851 3.31742 11.7296 3.78686 11.9977 4.34808C12.2659 4.90931 12.4 5.55925 12.4 6.29792C12.4 7.19258 12.0944 8.12603 11.4833 9.09825C10.8722 10.0705 9.94444 11.0566 8.7 12.0566C8.6 12.1455 8.48889 12.2094 8.36667 12.2483C8.24444 12.2871 8.12222 12.3066 8 12.3066ZM8.0035 7.38992C8.3345 7.38992 8.61667 7.27208 8.85 7.03642C9.08333 6.80075 9.2 6.51742 9.2 6.18642C9.2 5.85542 9.08216 5.57325 8.8465 5.33992C8.61083 5.10658 8.3275 4.98992 7.9965 4.98992C7.6655 4.98992 7.38333 5.10936 7.15 5.34825C6.91667 5.58714 6.8 5.86769 6.8 6.18992C6.8 6.51214 6.91783 6.7927 7.1535 7.03158C7.38917 7.27047 7.6725 7.38992 8.0035 7.38992Z" fill="#666666"/>
</g>
</g>
</svg>
