<svg width="20" height="20" viewBox="0 0 20 20" fill="none" xmlns="http://www.w3.org/2000/svg">
<path d="M18.75 7.50073C18.7475 7.33844 18.6817 7.17363 18.5669 7.05882L14.8169 3.30884C14.6337 3.12577 14.4375 3.12573 14.375 3.12573C14.0312 3.12573 13.75 3.40699 13.75 3.75074V5.62577H8.125C7.77984 5.62582 7.50004 5.90557 7.5 6.25071V8.75075C7.50004 9.09591 7.77984 9.37571 8.125 9.37576H13.75V11.2507C13.7501 11.5945 14.0312 11.8757 14.375 11.8757C14.4375 11.8757 14.6336 11.8758 14.8169 11.6927L18.5669 7.94263C18.6865 7.8231 18.75 7.67029 18.75 7.50073Z" fill="#E53935"/>
<path d="M12.5 11.2507C12.5 10.9055 12.2202 10.6257 11.875 10.6257H6.25V8.75074C6.24986 8.40699 5.96875 8.12573 5.625 8.12573C5.5625 8.12573 5.36634 8.12569 5.18311 8.30877L1.43311 12.0588C1.31112 12.1809 1.25 12.3407 1.25 12.5007C1.25 12.6606 1.31113 12.8205 1.43311 12.9426L5.18311 16.6925C5.36621 16.8756 5.5625 16.8757 5.625 16.8757C5.96875 16.8757 6.24986 16.5944 6.25 16.2506V14.3757H11.875C12.2202 14.3756 12.5 14.0958 12.5 13.7506V11.2507Z" fill="#23DC64"/>
</svg>
